<svg width="574" height="98" viewBox="0 0 574 98" fill="none" xmlns="http://www.w3.org/2000/svg" xmlns:xlink="http://www.w3.org/1999/xlink">
    <path fill-rule="evenodd" clip-rule="evenodd" d="M251.644 34.4959C250.613 34.5424 249.584 34.6124 248.545 34.7054C247.508 34.7982 246.4 34.9623 245.284 35.1683L245.102 34.1849C246.24 33.975 247.379 33.8057 248.455 33.7094C249.509 33.6151 250.553 33.5441 251.599 33.4969L251.644 34.4959ZM260.958 34.7056C259.896 34.6155 258.864 34.5477 257.855 34.5017L257.9 33.5027C258.924 33.5494 259.968 33.618 261.042 33.7092C262.192 33.8068 263.414 33.977 264.637 34.1877L264.468 35.1732C263.264 34.9658 262.071 34.8001 260.958 34.7056ZM235.66 37.6813L235.639 37.688L235.619 37.6931C234.937 37.86 234.092 38.0831 233.184 38.3458L232.906 37.3853C233.818 37.1213 234.669 36.8964 235.361 36.7267L235.402 36.7131C235.441 36.7 235.5 36.6807 235.576 36.6559C235.728 36.6062 235.95 36.5345 236.232 36.4459C236.796 36.2686 237.599 36.0233 238.556 35.7508L238.83 36.7126C237.883 36.9822 237.089 37.2248 236.532 37.3998C236.254 37.4873 236.035 37.5579 235.886 37.6065C235.812 37.6308 235.755 37.6496 235.716 37.6623L235.673 37.6766L235.66 37.6813ZM273.907 37.4042C273.306 37.2296 272.448 36.9877 271.425 36.7186L271.679 35.7515C272.712 36.023 273.578 36.2673 274.186 36.4438C274.49 36.532 274.73 36.6033 274.894 36.6527C274.976 36.6774 275.039 36.6966 275.082 36.7096L275.131 36.7246L275.148 36.7298C275.148 36.7298 275.148 36.7298 275 37.2074L275.148 36.7298L275.177 36.7389L277.705 37.8764L277.295 38.7884L274.823 37.6761L274.79 37.666C274.749 37.6533 274.687 37.6346 274.606 37.6103C274.445 37.5618 274.208 37.4914 273.907 37.4042ZM228.432 39.9752C227.515 40.363 226.771 40.7486 226.303 41.105L226.285 41.1192L226.265 41.1316L226 40.7074C226.265 41.1316 226.265 41.1316 226.265 41.1316L226.092 41.2396C225.98 41.3097 225.817 41.4118 225.613 41.5399C225.205 41.7961 224.633 42.1561 223.979 42.5715L223.443 41.7271C224.099 41.3107 224.672 40.9499 225.081 40.693C225.286 40.5646 225.449 40.4622 225.561 40.3919L225.716 40.2953C226.286 39.8655 227.116 39.4458 228.043 39.0541L228.432 39.9752ZM284.761 42.1481L282.295 41.0384L282.705 40.1264L285.239 41.2667L287.02 42.4118L286.48 43.253L284.761 42.1481ZM290.665 45.9439L289.98 45.503L290.52 44.6618L292.152 45.7109L292.473 45.7181C292.763 45.7244 293.168 45.7329 293.634 45.7414L293.615 46.7412C293.374 46.7368 293.149 46.7324 292.947 46.7283C292.966 46.7567 292.985 46.7851 293.004 46.8135C293.359 47.3456 293.71 47.8722 294.048 48.3895L293.211 48.9364C292.875 48.4227 292.529 47.9038 292.176 47.3748C292.037 47.1664 291.897 46.9565 291.757 46.7447C291.745 46.7463 291.733 46.748 291.721 46.7497C291.503 46.7805 291.191 46.8266 290.819 46.8872L290.665 45.9439ZM217.538 46.8547C217.624 46.7832 217.744 46.6909 217.896 46.5787C218.272 46.3018 218.809 45.9314 219.438 45.5109L218.882 44.6797C218.25 45.1024 217.697 45.483 217.303 45.7737C217.107 45.918 216.941 46.0471 216.821 46.1518C216.764 46.2025 216.703 46.2596 216.653 46.3179C216.642 46.3316 216.627 46.3492 216.612 46.3702L216.078 46.7547C215.68 47.0408 215.117 47.4459 214.456 47.9219L215.04 48.7333C215.701 48.2575 216.264 47.8525 216.662 47.5665L217.291 47.1139L217.552 46.9263L217.538 46.8547ZM298.657 46.6853C298.665 46.6851 298.675 46.6849 298.685 46.6849C298.771 46.6842 298.903 46.6891 299.078 46.7008C299.425 46.7241 299.91 46.772 300.473 46.8422L300.597 45.8499C300.021 45.7782 299.517 45.728 299.145 45.7031C298.96 45.6907 298.8 45.684 298.677 45.6849C298.618 45.6853 298.554 45.6876 298.496 45.6948C298.468 45.6982 298.426 45.7045 298.381 45.7174L298.38 45.7178C298.37 45.7208 298.347 45.7272 298.318 45.7396C298.313 45.7402 298.308 45.7407 298.302 45.7413C298.234 45.7483 298.13 45.7547 297.99 45.76C297.712 45.7704 297.326 45.7753 296.879 45.7761L296.88 46.7761C297.331 46.7753 297.732 46.7704 298.028 46.7593C298.175 46.7537 298.304 46.7464 298.404 46.7361C298.453 46.7311 298.507 46.7242 298.557 46.7137C298.581 46.7086 298.617 46.7001 298.655 46.6859L298.657 46.6853C298.657 46.6854 298.657 46.6852 298.657 46.6853ZM286.857 46.7282C287.265 46.6067 287.693 46.496 288.12 46.3961L288.348 47.3698C287.936 47.4663 287.527 47.5721 287.143 47.6866C286.72 47.8126 286.335 47.937 285.985 48.0583L285.657 47.1135C286.022 46.9872 286.421 46.8582 286.857 46.7282ZM306.276 48.1546C305.855 47.9438 305.211 47.7373 304.443 47.5479L304.683 46.5771C305.458 46.7683 306.18 46.9922 306.702 47.2494C307.21 47.4463 307.666 47.6271 308.095 47.803L307.715 48.7281C307.288 48.553 306.832 48.3722 306.319 48.1736L306.297 48.1651L306.276 48.1546ZM282.445 48.617C282.629 48.4876 282.908 48.3104 283.309 48.1007L283.772 48.9867C283.408 49.1776 283.166 49.3322 283.021 49.4345C282.949 49.4857 282.9 49.5237 282.872 49.5467C282.858 49.5582 282.849 49.566 282.845 49.5697C282.844 49.57 282.845 49.5694 282.845 49.5697C282.844 49.5703 282.843 49.5709 282.843 49.5712C282.843 49.5714 282.842 49.5723 282.842 49.5722L282.814 49.599L282.777 49.6234L282.773 49.6266L282.758 49.6362L282.701 49.6743C282.652 49.7077 282.579 49.7566 282.488 49.8184C282.306 49.9422 282.05 50.1176 281.754 50.3239L281.182 49.5038C281.482 49.2947 281.741 49.1168 281.926 48.9912C282.019 48.9284 282.093 48.8786 282.143 48.8445L282.193 48.8113C282.205 48.8007 282.22 48.788 282.238 48.7734C282.285 48.7345 282.353 48.6818 282.445 48.617ZM311.766 50.6493C311.28 50.3919 310.843 50.1663 310.433 49.9612L310.88 49.0667C311.291 49.2723 311.727 49.4972 312.208 49.7515C312.743 49.9578 313.219 50.1529 313.657 50.3461L313.253 51.2608C312.826 51.0723 312.356 50.8799 311.821 50.6741L311.793 50.6633L311.766 50.6493ZM278.146 51.8539C278.399 51.6018 278.754 51.3035 279.14 51.0004L279.758 51.7866C279.38 52.0834 279.062 52.3522 278.854 52.561C278.611 52.8037 278.373 53.0893 278.141 53.4069L277.333 52.8177C277.588 52.4685 277.859 52.1413 278.146 51.8539ZM208.299 53.608C208.961 53.1257 209.732 52.5665 210.539 51.9824L209.952 51.1723C209.143 51.7582 208.37 52.3194 207.705 52.8034L207.696 52.8103C207.148 53.2296 206.549 53.6464 205.936 54.0478L206.483 54.8847C207.11 54.4745 207.728 54.0446 208.299 53.608ZM317.203 53.6094C316.744 53.2763 316.333 52.9863 315.936 52.7239L316.487 51.8897C316.902 52.164 317.328 52.4642 317.794 52.8029L317.801 52.8079C318.251 53.147 318.651 53.463 319.014 53.7759L318.362 54.5337C318.021 54.2405 317.641 53.9395 317.203 53.6094ZM297.5 56.6944C297.502 55.6839 297.28 54.6717 296.911 53.6586L295.971 54.0012C296.314 54.9412 296.504 55.8386 296.5 56.7052L296.5 56.72L296.501 56.7348C296.512 56.9435 296.524 57.1454 296.535 57.3418C296.556 57.7014 296.575 58.0427 296.591 58.374L297.59 58.3266C297.574 57.9911 297.554 57.6411 297.533 57.2782C297.522 57.0871 297.511 56.8924 297.5 56.6944ZM275.546 55.9987C275.708 55.6448 275.884 55.2789 276.072 54.9129L276.961 55.3695C276.781 55.7201 276.612 56.0727 276.454 56.4162C276.311 56.7289 276.178 57.1172 276.06 57.5478L275.095 57.2832C275.222 56.8219 275.371 56.3777 275.546 55.9987ZM321.064 57.9523C320.795 57.4741 320.544 57.0609 320.294 56.6911L321.122 56.1308C321.389 56.5258 321.653 56.9598 321.929 57.4507C322.315 58.0585 322.645 58.6371 322.946 59.1836L322.071 59.6664C321.772 59.1253 321.451 58.5628 321.078 57.9755L321.071 57.9641L321.064 57.9523ZM200.719 58.1567C200.719 58.1567 200.719 58.1567 200.5 57.7074L200.674 58.176L200.664 58.1799L200.634 58.191L200.518 58.2333C200.418 58.2701 200.271 58.3233 200.086 58.3896C199.715 58.5221 199.189 58.7068 198.568 58.916L198.249 57.9683C198.863 57.7614 199.383 57.5788 199.749 57.4479C199.932 57.3825 200.077 57.3301 200.175 57.2941L200.288 57.2528L200.302 57.2474L200.315 57.2411C200.339 57.2296 200.373 57.2124 200.419 57.1897C200.51 57.1443 200.644 57.0771 200.813 56.9905C201.152 56.8173 201.633 56.5668 202.202 56.258L202.679 57.1368C202.102 57.4502 201.613 57.7046 201.268 57.8809C201.096 57.9691 200.959 58.0378 200.865 58.0845C200.818 58.1079 200.782 58.1258 200.758 58.1379L200.729 58.1518L200.722 58.1554L200.719 58.1567ZM200.5 57.7074L200.674 58.176L200.697 58.1675L200.719 58.1567L200.5 57.7074ZM419.395 57.5719C418.804 57.5847 418.189 57.6252 417.562 57.7036C417.397 57.7242 417.236 57.7442 417.079 57.7637C416.4 57.8481 415.793 57.9236 415.232 58.0021L415.094 57.0118C415.663 56.9321 416.279 56.8554 416.959 56.7709C417.115 56.7515 417.275 56.7317 417.438 56.7113C418.102 56.6283 418.752 56.5856 419.374 56.5722L419.395 57.5719ZM424.393 58.0718C424.083 58.0014 423.633 57.909 423.075 57.8225L423.228 56.8343C423.812 56.9248 424.285 57.0218 424.615 57.0967C424.779 57.1342 424.908 57.1661 424.997 57.1889C425.041 57.2004 425.075 57.2095 425.099 57.2159L425.124 57.223L425.126 57.2235L425.134 57.2256L425.136 57.2263L425.137 57.2266L425.163 57.2332L425.276 57.2623C425.374 57.2878 425.516 57.3252 425.696 57.3731C426.055 57.4687 426.563 57.6061 427.158 57.773L426.888 58.7358C426.298 58.5703 425.795 58.4342 425.439 58.3394C425.261 58.2921 425.12 58.2551 425.023 58.23L424.913 58.2014L424.885 58.1942L424.878 58.1924L424.877 58.1919L424.863 58.1884L424.857 58.1867L424.836 58.1808C424.817 58.1755 424.787 58.1675 424.747 58.1572C424.667 58.1367 424.548 58.107 424.393 58.0718ZM483.558 59.636L489 57.7074L487.949 63.3845L485.925 61.6563C485.588 61.9522 485.223 62.2605 484.817 62.5938L484.784 62.6214L484.746 62.6428C483.998 63.0647 483.323 63.4385 482.674 63.7827L482.205 62.8996C482.832 62.5665 483.488 62.204 484.216 61.7934C484.558 61.512 484.869 61.2503 485.156 61.0001L483.558 59.636ZM410.805 59.1213C410.177 59.3858 409.507 59.7173 408.744 60.1439C407.961 60.5814 407.305 60.9809 406.726 61.3802L406.158 60.557C406.771 60.1345 407.455 59.7183 408.256 59.2709C409.044 58.8305 409.748 58.4817 410.416 58.1998L410.805 59.1213ZM432.803 60.6669C432.244 60.4333 431.58 60.1908 430.875 59.9521L431.195 59.0048C431.915 59.2482 432.604 59.4997 433.193 59.7461L433.202 59.7498C433.923 60.068 434.563 60.3761 435.148 60.6767L434.691 61.5663C434.124 61.2749 433.503 60.9759 432.803 60.6669ZM194.29 60.213C193.519 60.4135 192.763 60.5859 192.083 60.7005L192.042 60.7074H190.5V59.7074H191.958C192.588 59.5994 193.3 59.4373 194.038 59.2452L194.29 60.213ZM177.5 60.2074C177.5 59.9313 177.724 59.7074 178 59.7074H180V60.7074H178C177.724 60.7074 177.5 60.4836 177.5 60.2074ZM184 60.7074V59.7074H187.5V60.7074H184ZM274.5 61.2074C274.5 60.8747 274.535 60.4011 274.6 59.8703L275.592 59.9914C275.53 60.5019 275.5 60.9312 275.5 61.2074C275.5 61.5246 275.543 61.9893 275.673 62.5643L274.698 62.7848C274.554 62.1469 274.5 61.608 274.5 61.2074ZM296.974 63.3681C297.196 62.8079 297.349 62.2652 297.45 61.7218L296.467 61.5385C296.376 62.0271 296.238 62.5149 296.036 63.0219L296.026 63.0467L296.019 63.0724C295.845 63.6917 295.635 64.2221 295.401 64.6817L296.292 65.1352C296.554 64.6201 296.785 64.0363 296.974 63.3681ZM325.672 64.5863C325.082 64.1426 324.601 63.6592 324.183 63.1394L324.962 62.5125C325.34 62.982 325.769 63.4122 326.299 63.8065L326.328 63.8282L327.479 64.9789L326.771 65.686L325.672 64.5863ZM440.263 64.6482C439.576 64.3103 438.963 63.9763 438.376 63.643L438.87 62.7735C439.45 63.1031 440.05 63.4294 440.72 63.7586L440.737 63.7665L440.752 63.7755C441.35 64.1243 441.889 64.4241 442.401 64.69L441.94 65.5774C441.415 65.3046 440.866 64.9993 440.263 64.6482ZM403.352 64.5997C402.909 65.1505 402.438 65.775 401.903 66.5033L401.902 66.5051C401.24 67.3978 400.625 68.1845 400.021 68.9042L399.255 68.2612C399.844 67.5604 400.446 66.7902 401.098 65.9097C401.636 65.1774 402.117 64.54 402.573 63.973L403.352 64.5997ZM478.378 65.8053C477.711 66.0812 476.989 66.3663 476.178 66.6747L476.175 66.6759C475.29 67.0059 474.486 67.2887 473.715 67.5368L473.409 66.5849C474.162 66.3428 474.949 66.0655 475.824 65.7395C476.627 65.4339 477.34 65.1525 477.996 64.8812L478.378 65.8053ZM276.567 66.9601C276.27 66.521 276.014 66.0904 275.792 65.6732L276.675 65.2044C276.885 65.5988 277.129 66.0078 277.414 66.4264L277.434 66.4558L277.449 66.4878C277.634 66.8665 277.996 67.3159 278.494 67.7808L277.811 68.5117C277.282 68.0171 276.831 67.483 276.567 66.9601ZM447.356 67.6861C446.683 67.4834 446.08 67.2927 445.518 67.1003L445.842 66.1542C446.387 66.3406 446.975 66.5268 447.637 66.7265C448.433 66.9407 449.15 67.1194 449.827 67.2714L449.608 68.2472C448.912 68.091 448.18 67.9081 447.37 67.6902L447.363 67.6883L447.356 67.6861ZM330.139 69.0528L329.021 67.936L329.729 67.2289L330.862 68.3619C331.293 68.8135 331.685 69.1984 332.057 69.5354L331.385 70.2761C330.994 69.9211 330.585 69.5204 330.142 69.0569C330.141 69.0555 330.14 69.0542 330.139 69.0528ZM292.968 68.6324C292.727 68.7991 292.506 68.9522 292.301 69.1068L292.247 69.1472L292.185 69.172C291.369 69.4964 290.642 69.7739 289.989 70.0106L289.648 69.0703C290.274 68.8438 290.971 68.5782 291.754 68.2673C291.96 68.1143 292.177 67.9641 292.393 67.8143L292.429 67.7893C292.68 67.6159 292.932 67.4407 293.185 67.2496L293.788 68.048C293.516 68.2529 293.248 68.4388 292.998 68.6116L292.968 68.6324ZM468.639 68.7878C467.857 68.9287 467.014 69.0636 466.073 69.2021L466.053 69.205L466.033 69.2063C465.166 69.2637 464.385 69.3088 463.647 69.3405L463.604 68.3414C464.326 68.3104 465.092 68.2663 465.947 68.2098C466.873 68.0734 467.699 67.9411 468.462 67.8036L468.639 68.7878ZM456.458 69.2056C455.623 69.1354 454.873 69.0661 454.171 68.9898L454.279 67.9956C454.969 68.0706 455.709 68.1391 456.538 68.2088C457.402 68.2683 458.174 68.313 458.895 68.3437L458.853 69.3428C458.12 69.3116 457.337 69.2663 456.466 69.2062L456.458 69.2056ZM282.951 71.205C282.35 71.1453 281.684 70.9341 281.027 70.6407L281.434 69.7276C282.036 69.9962 282.594 70.1646 283.049 70.2099C283.826 70.2871 284.456 70.3405 285.273 70.2531L285.379 71.2474C284.454 71.3465 283.737 71.2831 282.951 71.205ZM335.758 73.1453C335.206 72.8618 334.709 72.6005 334.244 72.3359L334.738 71.4666C335.188 71.7226 335.674 71.9781 336.228 72.2627L336.242 72.2695L336.255 72.2771C337.026 72.7336 337.722 73.1283 338.385 73.4806L337.915 74.3635C337.24 74.0043 336.534 73.6042 335.758 73.1453ZM395.68 73.2078C394.964 73.8073 394.183 74.4269 393.305 75.1034L393.276 75.1259L393.244 75.1438C392.364 75.6355 391.569 76.0679 390.815 76.4591L390.354 75.5717C391.087 75.1912 391.863 74.7697 392.724 74.2889C393.584 73.626 394.344 73.0223 395.038 72.4411L395.68 73.2078ZM344.826 77.1768C343.971 76.9021 343.204 76.6442 342.491 76.3862L342.831 75.4459C343.535 75.7005 344.296 75.9565 345.153 76.2313L345.174 76.238L345.194 76.2465C345.889 76.5389 346.519 76.7904 347.124 77.0153L346.775 77.9526C346.16 77.724 345.524 77.4698 344.826 77.1768ZM385.762 78.7382C384.965 79.0442 384.114 79.3515 383.163 79.68L383.127 79.6924L383.09 79.6992C382.182 79.8654 381.365 80.0111 380.594 80.143L380.426 79.1573C381.181 79.0281 381.982 78.8852 382.873 78.7224C383.801 78.4012 384.63 78.1018 385.403 77.8048L385.762 78.7382ZM352.871 79.6908C352.126 79.5192 351.456 79.3592 350.836 79.2015L351.083 78.2323C351.698 78.3887 352.364 78.5481 353.112 78.7201L353.129 78.724L353.145 78.729C353.803 78.9288 354.396 79.0976 354.967 79.2445L354.718 80.213C354.135 80.0629 353.532 79.8916 352.871 79.6908ZM375.575 80.8965C374.803 80.9961 373.978 81.0966 373.058 81.204L373.046 81.2055L373.034 81.2063C371.897 81.2829 370.876 81.3452 369.9 81.3894L369.854 80.3905C370.817 80.3469 371.826 80.2854 372.954 80.2094C373.866 80.1028 374.683 80.0033 375.446 79.9047L375.575 80.8965ZM360.441 81.2039C359.741 81.1206 359.112 81.0401 358.53 80.9567L358.671 79.9668C359.24 80.0482 359.857 80.1273 360.547 80.2095C361.69 80.2905 362.708 80.3505 363.645 80.3918L363.601 81.3909C362.65 81.3489 361.62 81.288 360.465 81.2062L360.453 81.2053L360.441 81.2039Z" fill="white"/>
    <defs>
    <pattern id="pattern0" patternContentUnits="objectBoundingBox" width="1" height="1">
    <use xlink:href="#image0_7_2" transform="scale(0.000527426 0.00109649)"/>
    </pattern>
    </defs>
    </svg>
