<?xml version="1.0" encoding="utf-8"?>
<svg width="19px" height="20px" viewBox="0 0 19 20" version="1.1" xmlns:xlink="http://www.w3.org/1999/xlink" xmlns="http://www.w3.org/2000/svg">
  <defs>
    <path d="M0 0L18.6916 0L18.6916 20L0 20L0 0Z" id="path_1" />
    <clipPath id="mask_1">
      <use xlink:href="#path_1" />
    </clipPath>
  </defs>
  <g id="Bookmark-icon">
    <path d="M0 0L18.6916 0L18.6916 20L0 20L0 0Z" id="Background" fill="none" fill-rule="evenodd" stroke="none" />
    <g clip-path="url(#mask_1)">
      <path d="M14.0187 15L14.0187 4.80001C14.0187 3.91641 13.3492 3.20001 12.5234 3.20001L5.60749 3.20001C5.09142 3.20001 4.67291 3.64781 4.67291 4.20001L4.67291 15.2L13.8318 15.2C13.935 15.2 14.0187 15.1104 14.0187 15L14.0187 15Z" id="Shape" fill="#A3A3CD" fill-rule="evenodd" stroke="none" />
      <path d="M7.66356 15.2L7.66356 3.20001L5.60749 3.20001C5.0916 3.20001 4.67291 3.64801 4.67291 4.20001L4.67291 15.2L7.66356 15.2L7.66356 15.2Z" id="Shape" fill="#666AAD" fill-rule="evenodd" stroke="none" />
      <path d="M13.458 15.9C13.458 16.2918 13.692 16.6764 14.0187 16.8L5.51403 16.8C5.04955 16.8 4.67291 16.397 4.67291 15.9C4.67291 15.403 5.04955 15 5.51403 15L14.0187 15C13.692 15.1236 13.458 15.5082 13.458 15.9L13.458 15.9Z" id="Shape" fill="#FEFDEF" fill-rule="evenodd" stroke="none" />
      <path d="M9.06542 2.70001L9.06542 8.90001L7.57009 8.10001L6.07477 8.90001L6.07477 2.70001L9.06542 2.70001Z" id="Shape" fill="#FCBA7F" fill-rule="evenodd" stroke="none" />
      <path d="M14.0187 17L5.514 17C4.94708 17 4.48596 16.5064 4.48596 15.9C4.48596 15.2936 4.94708 14.8 5.514 14.8L14.0187 14.8C14.1097 14.8 14.1874 14.8702 14.2028 14.9662C14.2183 15.062 14.1667 15.156 14.0809 15.1884C13.8323 15.2826 13.6448 15.5884 13.6448 15.9C13.6448 16.2116 13.8323 16.5174 14.0809 16.6116C14.1667 16.644 14.2181 16.738 14.2028 16.8338C14.1874 16.9298 14.1097 17 14.0187 17L14.0187 17ZM5.51401 15.2C5.15326 15.2 4.8598 15.514 4.8598 15.9C4.8598 16.286 5.15326 16.6 5.51401 16.6L13.4856 16.6C13.3514 16.401 13.271 16.1536 13.271 15.9C13.271 15.6464 13.3514 15.399 13.4856 15.2L5.51401 15.2L5.51401 15.2Z" id="Shape" fill="#1F212B" fill-rule="evenodd" stroke="none" />
      <path d="M13.3645 15.8L5.88783 15.8C5.83624 15.8 5.79437 15.7552 5.79437 15.7C5.79437 15.6448 5.83624 15.6 5.88783 15.6L13.3645 15.6C13.416 15.6 13.4579 15.6448 13.4579 15.7C13.4579 15.7552 13.416 15.8 13.3645 15.8L13.3645 15.8ZM13.3645 16.2L7.57008 16.2C7.51849 16.2 7.47662 16.1552 7.47662 16.1C7.47662 16.0448 7.51849 16 7.57008 16L13.3645 16C13.4161 16 13.4579 16.0448 13.4579 16.1C13.4579 16.1552 13.4161 16.2 13.3645 16.2L13.3645 16.2ZM4.85979 15.9L4.48596 15.9L4.48596 4.2C4.48596 3.5382 4.98895 3 5.60746 3L6.07475 3L6.07475 3.4L5.60746 3.4C5.19512 3.4 4.85979 3.7588 4.85979 4.2L4.85979 15.9L4.85979 15.9ZM14.2056 15L13.8317 15L13.8317 4.8C13.8317 4.0282 13.2448 3.4 12.5233 3.4L9.06537 3.4L9.06537 3L12.5233 3C13.4508 3 14.2056 3.8074 14.2056 4.8L14.2056 15L14.2056 15ZM7.57008 12C7.51849 12 7.47662 11.9552 7.47662 11.9L7.47662 8.1C7.47662 8.0448 7.51849 8 7.57008 8C7.62167 8 7.66354 8.0448 7.66354 8.1L7.66354 11.9C7.66354 11.9552 7.62167 12 7.57008 12L7.57008 12ZM7.57008 13C7.51849 13 7.47662 12.9552 7.47662 12.9L7.47662 12.5C7.47662 12.4448 7.51849 12.4 7.57008 12.4C7.62167 12.4 7.66354 12.4448 7.66354 12.5L7.66354 12.9C7.66354 12.9552 7.62167 13 7.57008 13L7.57008 13ZM7.57008 13.6C7.51849 13.6 7.47662 13.5552 7.47662 13.5L7.47662 13.3C7.47662 13.2448 7.51849 13.2 7.57008 13.2C7.62167 13.2 7.66354 13.2448 7.66354 13.3L7.66354 13.5C7.66354 13.5552 7.62167 13.6 7.57008 13.6L7.57008 13.6Z" id="Shape" fill="#1F212B" fill-rule="evenodd" stroke="none" />
      <path d="M9.06543 9.00001C9.05104 9.00001 9.03684 8.99641 9.02357 8.98941L7.57011 8.21181L6.11665 8.9896C6.08749 9.00481 6.05329 9.00301 6.02581 8.9854C5.99815 8.96681 5.98132 8.93461 5.98132 8.90001L5.98132 2.70001C5.98132 2.64481 6.02319 2.60001 6.07478 2.60001L9.06543 2.60001C9.11702 2.60001 9.15889 2.64481 9.15889 2.70001L9.15889 8.90001C9.15889 8.93461 9.14207 8.96681 9.11459 8.98521C9.09964 8.99501 9.08244 9.00001 9.06543 9.00001L9.06543 9.00001ZM7.57014 8.00002C7.58454 8.00002 7.59874 8.00362 7.61201 8.01062L8.97201 8.73822L8.97201 2.80002L6.16827 2.80002L6.16827 8.73822L7.52827 8.01042C7.54154 8.00362 7.55575 8.00002 7.57014 8.00002L7.57014 8.00002Z" id="Shape" fill="#1F212B" fill-rule="evenodd" stroke="none" />
    </g>
  </g>
</svg>