<?xml version="1.0" encoding="utf-8"?>
<svg width="20px" height="20px" viewBox="0 0 20 20" version="1.1" xmlns:xlink="http://www.w3.org/1999/xlink" xmlns="http://www.w3.org/2000/svg">
  <defs>
    <path d="M0 0L20 0L20 20L0 20L0 0Z" id="path_1" />
    <clipPath id="mask_1">
      <use xlink:href="#path_1" />
    </clipPath>
  </defs>
  <g id="Search-icon">
    <path d="M0 0L20 0L20 20L0 20L0 0Z" id="Background" fill="none" fill-rule="evenodd" stroke="none" />
    <g clip-path="url(#mask_1)">
      <path d="M10.0536 1.79999C7.62358 1.79999 5.65363 3.76993 5.65363 6.19998C5.65362 8.63002 7.62355 10.6 10.0536 10.6C12.4837 10.6 14.4536 8.63006 14.4536 6.20001C14.4536 3.76996 12.4837 1.80001 10.0536 1.79999L10.0536 1.79999Z" id="Shape" fill="#A3A3CD" fill-rule="evenodd" stroke="none" />
      <path d="M10.0536 10.8C7.51701 10.8 5.45361 8.73641 5.45361 6.20001C5.45361 3.66361 7.51701 1.60001 10.0536 1.60001C12.5902 1.60001 14.6536 3.66361 14.6536 6.20001C14.6536 8.73641 12.59 10.8 10.0536 10.8L10.0536 10.8ZM10.0536 2C7.73784 2 5.85364 3.884 5.85364 6.2C5.85364 8.516 7.73784 10.4 10.0536 10.4C12.3694 10.4 14.2536 8.516 14.2536 6.2C14.2536 3.884 12.3694 2 10.0536 2L10.0536 2Z" id="Shape" fill="#1F212B" fill-rule="evenodd" stroke="none" />
      <path d="M10.0536 12.2C9.94298 12.2 9.85358 12.1104 9.85358 12L9.85358 10.6C9.85358 10.4896 9.94298 10.4 10.0536 10.4C10.1642 10.4 10.2536 10.4896 10.2536 10.6L10.2536 12C10.2536 12.1104 10.164 12.2 10.0536 12.2L10.0536 12.2Z" id="Shape" fill="#1F212B" fill-rule="evenodd" stroke="none" />
      <path d="M10.0536 18L10.0536 18C9.50359 18 9.05359 17.55 9.05359 17L9.05359 13C9.05359 12.45 9.50359 12 10.0536 12L10.0536 12C10.6036 12 11.0536 12.45 11.0536 13L11.0536 17C11.0536 17.55 10.6036 18 10.0536 18L10.0536 18Z" id="Shape" fill="#FCBA7F" fill-rule="evenodd" stroke="none" />
      <path d="M10.0536 18.2C9.39178 18.2 8.85358 17.6618 8.85358 17L8.85358 13C8.85358 12.3382 9.39178 11.8 10.0536 11.8C10.7154 11.8 11.2536 12.3382 11.2536 13L11.2536 17C11.2536 17.6618 10.7152 18.2 10.0536 18.2L10.0536 18.2ZM10.0536 12.2C9.6124 12.2 9.2536 12.5588 9.2536 13L9.2536 17C9.2536 17.4412 9.6124 17.8 10.0536 17.8C10.4948 17.8 10.8536 17.4412 10.8536 17L10.8536 13C10.8536 12.5588 10.4948 12.2 10.0536 12.2L10.0536 12.2Z" id="Shape" fill="#1F212B" fill-rule="evenodd" stroke="none" />
      <path d="M10.0536 12.1906C9.6136 12.1906 9.2536 12.5218 9.2536 12.9264L9.2536 13L9.4136 13L10.8536 13L10.8536 12.9264C10.8536 12.5218 10.4936 12.1906 10.0536 12.1906L10.0536 12.1906Z" id="Shape" fill="#FED5B3" fill-rule="evenodd" stroke="none" />
      <path d="M10.0536 2.70001C8.1206 2.70001 6.55359 4.26701 6.55359 6.2C6.55358 8.133 8.12058 9.7 10.0536 9.70001C11.9866 9.70002 13.5536 8.13302 13.5536 6.20003C13.5536 4.26704 11.9866 2.70003 10.0536 2.70001L10.0536 2.70001Z" id="Shape" fill="#78CDD4" fill-rule="evenodd" stroke="none" />
      <path d="M10.0536 9.80001C8.06861 9.80001 6.45361 8.18501 6.45361 6.20001C6.45361 4.21501 8.06861 2.60001 10.0536 2.60001C12.0386 2.60001 13.6536 4.21501 13.6536 6.20001C13.6536 8.18501 12.0386 9.80001 10.0536 9.80001L10.0536 9.80001ZM10.0536 2.80002C8.17883 2.80002 6.65363 4.32522 6.65363 6.20002C6.65363 8.07482 8.17883 9.60002 10.0536 9.60002C11.9284 9.60002 13.4536 8.07482 13.4536 6.20002C13.4536 4.32522 11.9284 2.80002 10.0536 2.80002L10.0536 2.80002ZM11.1536 13.2L9.3536 13.2C9.2984 13.2 9.2536 13.1552 9.2536 13.1C9.2536 13.0448 9.2984 13 9.3536 13L11.1536 13C11.2088 13 11.2536 13.0448 11.2536 13.1C11.2536 13.1552 11.2088 13.2 11.1536 13.2L11.1536 13.2ZM9.55361 16C9.49841 16 9.45361 15.9552 9.45361 15.9L9.45361 13.7C9.45361 13.6448 9.49841 13.6 9.55361 13.6C9.60881 13.6 9.65361 13.6448 9.65361 13.7L9.65361 15.9C9.65361 15.9552 9.60881 16 9.55361 16L9.55361 16ZM9.55361 16.8C9.49841 16.8 9.45361 16.7552 9.45361 16.7L9.45361 16.3C9.45361 16.2448 9.49841 16.2 9.55361 16.2C9.60881 16.2 9.65361 16.2448 9.65361 16.3L9.65361 16.7C9.65361 16.7552 9.60881 16.8 9.55361 16.8L9.55361 16.8Z" id="Shape" fill="#1F212B" fill-rule="evenodd" stroke="none" />
    </g>
  </g>
</svg>